<svg width="40" height="40" viewBox="0 0 40 40" fill="none" xmlns="http://www.w3.org/2000/svg">
<path d="M21.7367 28.8711C23.5525 30.4786 25.6542 31.2377 28.61 31.5144C26.2433 30.1119 24.7283 28.8744 24.0383 26.2627C30.605 25.9727 36.25 21.8152 36.25 16.9769C36.25 12.1344 30.8508 7.27523 24.2633 6.92773L23.2692 8.0794C18.3083 8.0794 14.02 10.1702 11.9875 13.2044" stroke="#F4F4E1" stroke-width="2" stroke-linecap="round" stroke-linejoin="round"/>
<path d="M26.875 14.6329C26.875 13.8229 26.6 13.0121 26.0525 12.4721C25.5042 11.9321 24.8192 11.6621 23.8592 11.6621C22.215 11.6621 20.845 13.0121 20.845 14.6329C20.845 16.2538 21.0883 16.2863 21.6667 16.7938C22.3233 17.3688 23.8592 18.1438 23.8592 19.3596M11.75 18.0321C16.1667 18.0321 19.7467 20.7721 19.7467 24.1521C19.7467 27.5321 16.1658 30.2713 11.7492 30.2721L11.6108 30.2654C11.0258 31.6113 9.17833 33.1571 6.3425 33.0696C7.84167 32.2796 8.5225 31.2979 8.6675 29.7988C5.68917 28.8479 3.75083 26.6204 3.75 24.1521C3.75 20.7721 7.33083 18.0321 11.7483 18.0321H11.75Z" stroke="#F4F4E1" stroke-width="2" stroke-linecap="round" stroke-linejoin="round"/>
<path d="M23.8594 23.2246C23.5142 23.2246 23.2344 22.9448 23.2344 22.5996C23.2344 22.2544 23.5142 21.9746 23.8594 21.9746C24.2046 21.9746 24.4844 22.2544 24.4844 22.5996C24.4844 22.9448 24.2046 23.2246 23.8594 23.2246Z" fill="#F4F4E1"/>
</svg>
