<svg width="32" height="32" viewBox="0 0 32 32" fill="none" xmlns="http://www.w3.org/2000/svg">
<path fill-rule="evenodd" clip-rule="evenodd" d="M28.6065 7.22131C28.7332 7.41358 28.7896 7.64369 28.7663 7.87276C28.743 8.10183 28.6414 8.31584 28.4785 8.47864L16.2212 20.7346C16.0958 20.86 15.9393 20.9497 15.7679 20.9946L10.6625 22.328C10.4938 22.372 10.3164 22.3711 10.1481 22.3254C9.97981 22.2797 9.82637 22.1908 9.70305 22.0675C9.57973 21.9441 9.4908 21.7907 9.4451 21.6224C9.3994 21.4541 9.39851 21.2767 9.44253 21.108L10.7759 16.004C10.8157 15.8511 10.889 15.709 10.9905 15.588L23.2932 3.29331C23.4807 3.10604 23.7349 3.00085 23.9999 3.00085C24.2649 3.00085 24.519 3.10604 24.7065 3.29331L28.4785 7.06397C28.5251 7.11309 28.5679 7.16569 28.6065 7.22131ZM26.3572 7.77064L23.9999 5.41464L12.6425 16.772L11.8092 19.9626L14.9999 19.1293L26.3572 7.77064Z" fill="#27548B"/>
<path d="M26.1882 22.88C26.5526 19.7652 26.669 16.6265 26.5362 13.4933C26.533 13.4195 26.5453 13.3458 26.5722 13.2769C26.599 13.2081 26.6399 13.1455 26.6922 13.0933L28.0042 11.7813C28.04 11.7453 28.0855 11.7203 28.1352 11.7095C28.1849 11.6987 28.2366 11.7024 28.2842 11.7203C28.3318 11.7382 28.3733 11.7695 28.4035 11.8103C28.4338 11.8512 28.4516 11.8999 28.4548 11.9506C28.7011 15.6723 28.6074 19.4087 28.1748 23.1133C27.8602 25.8093 25.6948 27.9226 23.0108 28.2226C18.3513 28.7383 13.6491 28.7383 8.98951 28.2226C6.30685 27.9226 4.14018 25.8093 3.82551 23.1133C3.27366 18.3871 3.27366 13.6128 3.82551 8.88665C4.14018 6.19065 6.30551 4.07731 8.98951 3.77731C12.5261 3.38671 16.0891 3.29171 19.6415 3.49331C19.6924 3.49696 19.7411 3.51511 19.7819 3.5456C19.8228 3.57608 19.854 3.61764 19.872 3.66534C19.8899 3.71304 19.8939 3.76489 19.8833 3.81475C19.8727 3.8646 19.848 3.91038 19.8122 3.94665L18.4882 5.26931C18.4364 5.32111 18.3745 5.36169 18.3064 5.38853C18.2383 5.41537 18.1654 5.42789 18.0922 5.42531C15.1279 5.32378 12.1601 5.43741 9.21218 5.76531C8.35077 5.86066 7.54665 6.24361 6.92972 6.85231C6.31279 7.46102 5.91908 8.25992 5.81218 9.11998C5.27732 13.6911 5.27732 18.3089 5.81218 22.88C5.91908 23.74 6.31279 24.5389 6.92972 25.1476C7.54665 25.7563 8.35077 26.1393 9.21218 26.2346C13.6855 26.7346 18.3148 26.7346 22.7895 26.2346C23.6509 26.1393 24.455 25.7563 25.072 25.1476C25.6889 24.5389 26.0813 23.74 26.1882 22.88Z" fill="#27548B"/>
</svg>
