<svg width="32" height="32" viewBox="0 0 32 32" fill="none" xmlns="http://www.w3.org/2000/svg">
<path d="M16 24.3337C16.2652 24.3337 16.5196 24.439 16.7071 24.6266C16.8946 24.8141 17 25.0684 17 25.3337C17 25.5989 16.8946 25.8532 16.7071 26.0408C16.5196 26.2283 16.2652 26.3337 16 26.3337H8C7.38116 26.3337 6.78767 26.0878 6.35009 25.6502C5.9125 25.2127 5.66667 24.6192 5.66667 24.0003V8.00033C5.66667 7.38149 5.9125 6.78799 6.35009 6.35041C6.78767 5.91282 7.38116 5.66699 8 5.66699H16C16.2652 5.66699 16.5196 5.77235 16.7071 5.95989C16.8946 6.14742 17 6.40178 17 6.66699C17 6.93221 16.8946 7.18656 16.7071 7.3741C16.5196 7.56164 16.2652 7.66699 16 7.66699H8C7.9116 7.66699 7.82681 7.70211 7.7643 7.76462C7.70179 7.82714 7.66667 7.91192 7.66667 8.00033V24.0003C7.66667 24.0887 7.70179 24.1735 7.7643 24.236C7.82681 24.2985 7.9116 24.3337 8 24.3337H16Z" fill="#F4F4E1"/>
<path fill-rule="evenodd" clip-rule="evenodd" d="M12.6625 19.1536C11.7425 19.1536 10.9958 18.407 10.9958 17.487V14.5003C10.9958 13.5803 11.7425 12.8336 12.6625 12.8336H18.8131L18.8398 12.5403L18.9118 11.799C18.9373 11.5371 19.0255 11.2853 19.169 11.0648C19.3125 10.8444 19.5071 10.6617 19.7362 10.5325C19.9653 10.4032 20.2222 10.3311 20.4851 10.3222C20.748 10.3134 21.0092 10.3681 21.2465 10.4816C23.4268 11.5244 25.4 12.9537 27.0705 14.7003L27.2025 14.8376C27.5006 15.1487 27.667 15.5628 27.667 15.9936C27.667 16.4244 27.5006 16.8386 27.2025 17.1496L27.0691 17.287C25.399 19.0334 23.4263 20.4627 21.2465 21.5056C21.0092 21.6192 20.748 21.6739 20.4851 21.665C20.2222 21.6562 19.9653 21.5841 19.7362 21.4548C19.5071 21.3255 19.3125 21.1429 19.169 20.9224C19.0255 20.702 18.9373 20.4501 18.9118 20.1883L18.8398 19.447L18.8131 19.1536H12.6625ZM19.7398 17.1536C19.9943 17.1538 20.2391 17.251 20.4244 17.4254C20.6097 17.5998 20.7215 17.8383 20.7371 18.0923C20.762 18.479 20.7931 18.8661 20.8305 19.2536L20.8518 19.4696C22.5919 18.5717 24.1751 17.3978 25.5398 15.9936C24.1751 14.5894 22.5919 13.4156 20.8518 12.5176L20.8305 12.7336C20.7931 13.1203 20.762 13.5074 20.7371 13.895C20.7215 14.1489 20.6097 14.3874 20.4244 14.5618C20.2391 14.7362 19.9943 14.8334 19.7398 14.8336H12.9958V17.1536H19.7398Z" fill="#F4F4E1"/>
</svg>
