<svg width="24" height="24" viewBox="0 0 24 24" fill="none" xmlns="http://www.w3.org/2000/svg">
<path d="M11 12.8845C11.2513 12.8845 11.4615 12.7983 11.6307 12.626C11.7999 12.4535 11.8845 12.2448 11.8845 12C11.8845 11.7487 11.7999 11.5384 11.6307 11.3693C11.4615 11.2001 11.2513 11.1155 11 11.1155C10.7551 11.1155 10.5465 11.2001 10.374 11.3693C10.2016 11.5384 10.1155 11.7487 10.1155 12C10.1155 12.2448 10.2016 12.4535 10.374 12.626C10.5465 12.7983 10.7551 12.8845 11 12.8845ZM6.99996 20.5V19L13.5 18.1538V5.54225L7.30771 4.75V3.25L15 4.2615V19.4193L6.99996 20.5ZM3.73071 20.5V19H5.49996V3.25H18.5V19H20.2692V20.5H3.73071ZM6.99996 19H17V4.75H6.99996V19Z" fill="#183B4E"/>
</svg>
