<svg width="40" height="40" viewBox="0 0 40 40" fill="none" xmlns="http://www.w3.org/2000/svg">
<path d="M29.7572 22.0003H24.5905C23.9056 21.9996 23.2484 22.2705 22.763 22.7537C22.2776 23.2369 22.0036 23.8928 22.0012 24.5777V29.7443C22.0008 30.0845 22.0676 30.4213 22.1976 30.7356C22.3276 31.0499 22.5183 31.3355 22.7588 31.576C22.9993 31.8166 23.2849 32.0073 23.5992 32.1373C23.9135 32.2673 24.2504 32.334 24.5905 32.3337H29.7572C30.4418 32.3308 31.0974 32.0567 31.5803 31.5713C32.0631 31.086 32.3339 30.429 32.3332 29.7443V24.5777C32.3335 24.2393 32.2671 23.9041 32.1378 23.5915C32.0085 23.2788 31.8187 22.9946 31.5795 22.7554C31.3402 22.5161 31.0561 22.3264 30.7434 22.197C30.4307 22.0677 30.0956 22.0013 29.7572 22.0017M15.4092 22.0003H10.2425C9.55796 22.0042 8.90278 22.2789 8.4201 22.7643C7.93742 23.2497 7.66649 23.9064 7.66651 24.591V29.7577C7.66615 30.096 7.73255 30.4312 7.86188 30.7439C7.99121 31.0566 8.18094 31.3407 8.42022 31.5799C8.65949 31.8192 8.9436 32.009 9.2563 32.1383C9.56899 32.2676 9.90412 32.334 10.2425 32.3337H15.4092C16.0938 32.3344 16.7508 32.0636 17.2362 31.5808C17.7215 31.0979 17.9957 30.4423 17.9985 29.7577V24.591C17.9989 24.2509 17.9321 23.914 17.8021 23.5997C17.6721 23.2854 17.4814 22.9998 17.2409 22.7593C17.0004 22.5188 16.7148 22.328 16.4005 22.198C16.0862 22.068 15.7493 22.0013 15.4092 22.0017M15.4092 7.66699H10.2425C9.90412 7.66664 9.56899 7.73303 9.2563 7.86237C8.9436 7.9917 8.65949 8.18143 8.42022 8.4207C8.18094 8.65998 7.99121 8.94409 7.86188 9.25679C7.73255 9.56948 7.66615 9.90461 7.66651 10.243V15.4097C7.66579 16.0943 7.93654 16.7513 8.41941 17.2367C8.90227 17.722 9.55787 17.9962 10.2425 17.999H15.4092C15.7493 17.9993 16.0862 17.9326 16.4005 17.8026C16.7148 17.6726 17.0004 17.4819 17.2409 17.2414C17.4814 17.0009 17.6721 16.7153 17.8021 16.401C17.9321 16.0867 17.9989 15.7498 17.9985 15.4097V10.243C17.9957 9.55835 17.7215 8.90276 17.2362 8.41989C16.7508 7.93703 16.0938 7.66628 15.4092 7.66699ZM29.7572 7.66699H24.5905C23.9059 7.66628 23.2489 7.93703 22.7635 8.41989C22.2781 8.90276 22.004 9.55835 22.0012 10.243V15.4097C22.0015 16.0963 22.2744 16.7547 22.76 17.2402C23.2455 17.7257 23.9039 17.9986 24.5905 17.999H29.7572C30.4418 17.9962 31.0974 17.722 31.5803 17.2367C32.0631 16.7513 32.3339 16.0943 32.3332 15.4097V10.243C32.3335 9.90461 32.2671 9.56948 32.1378 9.25679C32.0085 8.94409 31.8187 8.65998 31.5795 8.4207C31.3402 8.18143 31.0561 7.9917 30.7434 7.86237C30.4307 7.73303 30.0956 7.66664 29.7572 7.66699Z" stroke="#183B4E" stroke-width="1.5" stroke-linecap="round" stroke-linejoin="round"/>
</svg>
