<?xml version="1.0" standalone="no"?>
<!DOCTYPE svg PUBLIC "-//W3C//DTD SVG 20010904//EN"
 "http://www.w3.org/TR/2001/REC-SVG-20010904/DTD/svg10.dtd">
<svg version="1.0" xmlns="http://www.w3.org/2000/svg"
 width="712.000000pt" height="512.000000pt" viewBox="0 0 550.000000 612.000000"
 preserveAspectRatio="xMidYMid meet">

<g transform="translate(0.000000,512.000000) scale(0.100000,-0.100000)"
fill="#000000" stroke="none">
<path d="M1910 4429 c-681 -451 -819 -539 -840 -534 -14 3 -77 9 -141 12 -97
4 -129 2 -200 -16 -275 -69 -482 -271 -556 -541 -27 -101 -25 -292 6 -390 42
-136 96 -225 196 -325 120 -121 235 -182 390 -209 l70 -12 5 -1118 c5 -1092 5
-1118 24 -1132 17 -12 285 -14 1851 -14 1762 0 1833 1 1848 18 16 17 17 132
17 1449 l0 1431 84 -5 c74 -5 89 -3 138 19 101 46 168 148 168 253 0 59 -33
143 -72 186 -18 19 -375 268 -793 554 -418 286 -890 608 -1049 717 -159 109
-299 198 -310 197 -12 0 -388 -243 -836 -540z m1466 -22 c1561 -1067 1436
-978 1455 -1022 25 -54 24 -93 -4 -145 -31 -58 -76 -82 -147 -78 -55 4 -63 9
-988 642 -699 478 -939 637 -955 634 -12 -3 -295 -186 -630 -406 -334 -221
-609 -402 -612 -402 -2 0 -26 24 -54 53 -27 29 -83 74 -125 102 -52 34 -73 52
-65 60 21 21 1494 992 1500 989 4 -2 285 -194 625 -427z m337 -762 l746 -510
1 -1432 0 -1433 -1750 0 -1750 0 0 1069 c0 1010 1 1070 18 1075 9 2 37 8 62
11 74 12 194 60 268 108 301 195 424 582 287 909 -15 35 -27 68 -28 74 -1 7
263 187 587 402 l589 390 111 -77 c62 -42 448 -305 859 -586z m-2606 113 c251
-89 423 -331 423 -595 0 -302 -211 -559 -510 -619 -437 -87 -828 311 -735 750
49 230 237 423 470 483 84 21 266 11 352 -19z"/>
<path d="M2166 3138 c-23 -6 -56 -28 -82 -53 -62 -62 -66 -93 -62 -455 3 -302
3 -305 27 -347 14 -24 42 -55 64 -70 l40 -28 536 -3 c368 -2 548 0 574 8 51
15 102 62 122 113 14 36 15 89 13 378 l-3 336 -28 40 c-15 22 -46 50 -70 64
l-42 24 -525 2 c-341 1 -539 -2 -564 -9z m1073 -123 c16 -8 31 -22 35 -30 3
-9 6 -69 6 -133 l0 -117 -108 108 c-89 88 -113 107 -137 107 -26 0 -54 -26
-200 -179 l-170 -180 -71 70 c-40 38 -80 69 -90 69 -11 0 -86 -68 -185 -170
-92 -93 -170 -170 -173 -170 -3 0 -6 127 -6 283 0 302 3 320 50 344 40 20
1011 18 1049 -2z m41 -562 c0 -97 -2 -106 -25 -128 -23 -24 -29 -25 -167 -25
l-143 0 -99 99 -99 99 36 42 c19 23 84 93 144 155 l108 113 123 -125 122 -126
0 -104z m-640 -151 c-71 -1 -190 -1 -265 0 l-137 3 133 139 133 139 132 -139
132 -139 -128 -3z"/>
<path d="M3870 2272 c-62 -33 -75 -73 -99 -302 -34 -331 -38 -320 100 -320
l89 0 0 -464 0 -463 -51 -6 c-108 -13 -159 -80 -159 -210 0 -121 -8 -117 268
-117 285 0 272 -6 272 124 0 80 -3 98 -23 127 -27 42 -98 79 -149 79 l-38 0 0
465 0 465 93 0 c142 0 136 -16 105 285 -28 267 -35 290 -98 332 -30 21 -45 23
-154 23 -99 0 -128 -3 -156 -18z m260 -124 c8 -21 40 -303 40 -355 0 -23 -1
-23 -150 -23 l-150 0 5 38 c3 20 12 103 20 185 9 81 18 154 21 162 5 12 27 15
105 15 94 0 100 -1 109 -22z m28 -1560 c7 -7 12 -27 12 -45 l0 -33 -150 0
-150 0 0 29 c0 54 18 61 154 61 81 0 126 -4 134 -12z"/>
<path d="M1449 1546 c-42 -15 -81 -43 -110 -80 -38 -49 -49 -102 -49 -246 l0
-138 -31 -7 c-51 -12 -115 -83 -128 -144 -16 -75 -14 -479 2 -511 l13 -25 198
-3 c138 -2 203 1 212 9 8 6 14 29 14 50 l0 39 829 0 828 0 6 -36 c11 -64 9
-64 227 -64 158 0 200 3 209 14 9 10 11 90 9 288 l-3 275 -29 38 c-17 21 -49
47 -76 59 l-48 21 -4 150 c-3 130 -7 156 -26 191 -27 53 -90 107 -141 122 -26
8 -161 12 -427 12 -386 0 -389 0 -439 -24 -27 -12 -56 -30 -64 -39 -12 -15
-16 -14 -47 9 -67 52 -80 53 -499 53 -295 0 -399 -3 -426 -13z m831 -121 c53
-27 60 -56 60 -240 l0 -165 -343 0 c-341 0 -344 0 -390 -23 l-46 -24 -30 37
c-17 21 -50 46 -75 56 l-46 19 0 133 c0 146 8 174 59 205 23 14 72 17 404 17
319 0 383 -2 407 -15z m1049 2 c13 -6 34 -25 45 -40 18 -25 21 -45 24 -167 l3
-138 -32 -7 c-19 -4 -52 -27 -79 -54 l-46 -46 -35 20 c-32 19 -56 20 -389 25
l-355 5 -3 152 c-3 174 6 210 60 243 32 19 49 20 408 20 278 0 381 -3 399 -13z
m-1897 -484 c16 -15 18 -35 18 -225 l0 -208 -106 0 -105 0 3 204 c4 247 3 246
106 246 47 0 71 -5 84 -17z m2110 0 c16 -15 18 -35 18 -225 l0 -208 -106 0
-105 0 3 204 c4 247 3 246 106 246 47 0 71 -5 84 -17z m-375 -63 c50 -30 63
-66 63 -175 l0 -95 -827 2 -828 3 1 90 c1 103 17 145 67 175 31 19 56 20 762
20 706 0 731 -1 762 -20z"/>
<path d="M860 3520 c-18 -18 -20 -33 -20 -160 l0 -140 -138 0 c-153 0 -174 -7
-174 -55 -1 -55 27 -65 178 -65 l134 0 0 -138 c0 -122 2 -141 18 -155 23 -21
66 -22 86 -1 13 12 16 41 16 154 l0 139 141 3 142 3 21 28 c19 26 19 30 5 55
l-15 27 -147 3 -147 3 0 139 c0 127 -2 142 -20 160 -11 11 -29 20 -40 20 -11
0 -29 -9 -40 -20z"/>
</g>
</svg>
