<svg width="40" height="40" viewBox="0 0 40 40" fill="none" xmlns="http://www.w3.org/2000/svg">
<path d="M14 21.23C13.6553 21.23 13.364 21.1113 13.126 20.874C12.888 20.6367 12.769 20.3453 12.769 20C12.769 19.6547 12.888 19.3633 13.126 19.126C13.364 18.8887 13.6553 18.7697 14 18.769C14.3447 18.7683 14.636 18.8873 14.874 19.126C15.112 19.3647 15.231 19.656 15.231 20C15.231 20.344 15.112 20.6353 14.874 20.874C14.636 21.1127 14.3447 21.2317 14 21.231M14 25C12.6153 25 11.436 24.513 10.462 23.539C9.488 22.565 9.00067 21.3853 9 20C8.99933 18.6147 9.48667 17.4353 10.462 16.462C11.4373 15.4887 12.6167 15.0013 14 15C15.0267 15 15.9527 15.2783 16.778 15.835C17.6033 16.391 18.2057 17.1127 18.585 18H27.789L29.789 20L26.596 23.154L24.884 21.866L23.077 23.192L21.298 22H18.585C18.205 22.8747 17.6027 23.5933 16.778 24.156C15.9533 24.7187 15.0273 25 14 25ZM14 24C14.9847 24 15.8247 23.7037 16.52 23.111C17.2153 22.5183 17.6607 21.8147 17.856 21H21.616L23.046 21.967L24.904 20.634L26.525 21.856L28.381 20L27.381 19H17.856C17.6613 18.1847 17.216 17.481 16.52 16.889C15.824 16.297 14.984 16.0007 14 16C12.9 16 11.9583 16.3917 11.175 17.175C10.3917 17.9583 10 18.9 10 20C10 21.1 10.3917 22.0417 11.175 22.825C11.9583 23.6083 12.9 24 14 24Z" fill="#F4F4E1"/>
</svg>
