<svg width="40" height="40" viewBox="0 0 40 40" fill="none" xmlns="http://www.w3.org/2000/svg">
<path d="M20.0002 33.3337C19.2668 33.3337 18.6393 33.0728 18.1175 32.551C17.5957 32.0292 17.3344 31.4012 17.3335 30.667H22.6668C22.6668 31.4003 22.4059 32.0283 21.8842 32.551C21.3624 33.0737 20.7344 33.3346 20.0002 33.3337ZM9.3335 29.3337V26.667H12.0002V17.3337C12.0002 15.4892 12.5557 13.8506 13.6668 12.4177C14.7779 10.9848 16.2224 10.0457 18.0002 9.60033V8.667C18.0002 8.11144 18.1948 7.63944 18.5842 7.251C18.9735 6.86255 19.4455 6.66788 20.0002 6.667C20.5548 6.66611 21.0273 6.86077 21.4175 7.251C21.8077 7.64122 22.0019 8.11322 22.0002 8.667V9.60033C22.2446 9.667 22.4837 9.73944 22.7175 9.81766C22.9513 9.89588 23.1788 9.99011 23.4002 10.1003L21.3002 12.167C21.0779 12.1226 20.8668 12.0834 20.6668 12.0497C20.4668 12.0159 20.2446 11.9994 20.0002 12.0003C18.5335 12.0003 17.2779 12.5226 16.2335 13.567C15.1891 14.6114 14.6668 15.867 14.6668 17.3337V26.667H25.3335V23.867L28.0002 21.2003V26.667H30.6668V29.3337H9.3335ZM20.0002 21.3337V17.2337L27.3668 9.90033C27.5668 9.70033 27.7891 9.55588 28.0335 9.467C28.2779 9.37811 28.5224 9.33366 28.7668 9.33366C29.0335 9.33366 29.2891 9.38388 29.5335 9.48433C29.7779 9.58477 30.0002 9.73455 30.2002 9.93366L31.4335 11.167C31.6113 11.367 31.7504 11.5892 31.8508 11.8337C31.9513 12.0781 32.0011 12.3226 32.0002 12.567C31.9993 12.8114 31.9548 13.0617 31.8668 13.3177C31.7788 13.5737 31.6344 13.8012 31.4335 14.0003L24.1002 21.3337H20.0002ZM22.0002 19.3337H23.2668L27.3002 15.267L26.7002 14.6337L26.0668 14.0337L22.0002 18.067V19.3337ZM26.7002 14.6337L26.0668 14.0337L27.3002 15.267L26.7002 14.6337Z" fill="#F4F4E1"/>
</svg>
