<svg width="16" height="19" viewBox="0 0 16 19" fill="none" xmlns="http://www.w3.org/2000/svg">
<path d="M10.3401 2.28418H5.66008C4.00008 2.28418 3.63341 3.25992 3.42008 4.45598L2.66675 8.71303H13.3334L12.5801 4.45598C12.3667 3.25992 12.0001 2.28418 10.3401 2.28418Z" stroke="#183B4E" stroke-linecap="round" stroke-linejoin="round"/>
<path d="M14.6601 15.6535C14.7334 16.5741 14.1067 17.3689 13.3067 17.3689H12.0534C11.3334 17.3689 11.2334 17.0069 11.1067 16.5584L10.9734 16.0863C10.7867 15.441 10.6667 15.0082 9.70674 15.0082H6.2934C5.3334 15.0082 5.1934 15.4961 5.02674 16.0863L4.8934 16.5584C4.76674 17.0069 4.66674 17.3689 3.94674 17.3689H2.6934C1.8934 17.3689 1.26674 16.5741 1.34007 15.6535L1.7134 10.8613C1.80674 9.681 2.00007 8.71313 3.74674 8.71313H12.2534C14.0001 8.71313 14.1934 9.681 14.2867 10.8613L14.6601 15.6535Z" stroke="#183B4E" stroke-linecap="round" stroke-linejoin="round"/>
<path d="M2.66667 6.35242H2" stroke="#183B4E" stroke-linecap="round" stroke-linejoin="round"/>
<path d="M13.9999 6.35242H13.3333" stroke="#183B4E" stroke-linecap="round" stroke-linejoin="round"/>
<path d="M8 2.41797V3.99174" stroke="#183B4E" stroke-linecap="round" stroke-linejoin="round"/>
<path d="M7 3.99182H9" stroke="#183B4E" stroke-linecap="round" stroke-linejoin="round"/>
<path d="M4 11.8607H6" stroke="#183B4E" stroke-linecap="round" stroke-linejoin="round"/>
<path d="M10 11.8607H12" stroke="#183B4E" stroke-linecap="round" stroke-linejoin="round"/>
</svg>
