<svg width="16" height="16" viewBox="0 0 16 16" fill="none" xmlns="http://www.w3.org/2000/svg">
<path fill-rule="evenodd" clip-rule="evenodd" d="M10.8734 10.374L13.6161 13.1173L13.0508 13.6827L10.3021 10.934C9.37393 11.6993 8.18606 12.0767 6.98637 11.9873C5.78668 11.8979 4.66786 11.3486 3.86339 10.4542C3.05892 9.5597 2.63096 8.38911 2.66882 7.18669C2.70667 5.98427 3.20742 4.84291 4.06656 4.00082C4.9257 3.15872 6.07686 2.68094 7.2798 2.66718C8.48274 2.65342 9.64452 3.10474 10.5227 3.92697C11.4009 4.74919 11.9276 5.87879 11.9929 7.08004C12.0583 8.28128 11.6572 9.46135 10.8734 10.374ZM11.2001 7.33333C11.2001 6.30782 10.7927 5.32432 10.0676 4.59918C9.34243 3.87404 8.35893 3.46666 7.33343 3.46666C6.30792 3.46666 5.32442 3.87404 4.59928 4.59918C3.87414 5.32432 3.46676 6.30782 3.46676 7.33333C3.46676 8.35883 3.87414 9.34233 4.59928 10.0675C5.32442 10.7926 6.30792 11.2 7.33343 11.2C8.35893 11.2 9.34243 10.7926 10.0676 10.0675C10.7927 9.34233 11.2001 8.35883 11.2001 7.33333Z" fill="#85959D"/>
</svg>
