<svg width="40" height="40" viewBox="0 0 40 40" fill="none" xmlns="http://www.w3.org/2000/svg">
<path d="M26.6667 26.1595C27.4914 26.1595 28.16 25.4909 28.16 24.6662C28.16 23.8414 27.4914 23.1729 26.6667 23.1729C25.8419 23.1729 25.1733 23.8414 25.1733 24.6662C25.1733 25.4909 25.8419 26.1595 26.6667 26.1595Z" fill="#F4F4E1"/>
<path fill-rule="evenodd" clip-rule="evenodd" d="M26.6668 27.333C25.6935 27.333 23.7468 27.813 23.6802 28.773C24.3468 29.7197 25.4402 30.333 26.6668 30.333C27.8935 30.333 28.9868 29.7197 29.6535 28.773C29.5868 27.813 27.6402 27.333 26.6668 27.333Z" fill="#F4F4E1"/>
<path fill-rule="evenodd" clip-rule="evenodd" d="M28 18.7867V12.36L18 8L8 12.36V18.9067C8 24.96 12.2667 30.6267 18 32C18.7333 31.8267 19.44 31.5733 20.1333 31.2667C20.8679 32.3177 21.8456 33.1758 22.9831 33.7677C24.1206 34.3597 25.3843 34.6681 26.6667 34.6667C31.08 34.6667 34.6667 31.08 34.6667 26.6667C34.6667 22.7067 31.7867 19.4267 28 18.7867ZM18.6667 26.6667C18.6667 27.4133 18.7733 28.1467 18.9733 28.8267C18.6533 28.9733 18.3333 29.12 18 29.2267C13.7733 27.8933 10.6667 23.5733 10.6667 18.9067V14.1067L18 10.9067L25.3333 14.1067V18.7867C21.5467 19.4267 18.6667 22.7067 18.6667 26.6667ZM26.6667 32C23.72 32 21.3333 29.6133 21.3333 26.6667C21.3333 23.72 23.72 21.3333 26.6667 21.3333C29.6133 21.3333 32 23.72 32 26.6667C32 29.6133 29.6133 32 26.6667 32Z" fill="#F4F4E1"/>
</svg>
