<svg width="18" height="18" viewBox="0 0 18 18" fill="none" xmlns="http://www.w3.org/2000/svg">
<path d="M7.84739 2.35098L4.45141 3.63042C3.66877 3.92306 3.02905 4.84862 3.02905 5.67889V10.7354C3.02905 11.5385 3.55989 12.5933 4.20641 13.0765L7.1328 15.2611C8.09239 15.9825 9.67127 15.9825 10.6309 15.2611L13.5572 13.0765C14.2038 12.5933 14.7346 11.5385 14.7346 10.7354V5.67889C14.7346 4.84181 14.0949 3.91626 13.3122 3.62362L9.91627 2.35098C9.3378 2.14001 8.41225 2.14001 7.84739 2.35098Z" stroke="#183B4E" stroke-linecap="round" stroke-linejoin="round"/>
<path d="M8.87503 9.34026C9.62675 9.34026 10.2361 8.73087 10.2361 7.97915C10.2361 7.22743 9.62675 6.61804 8.87503 6.61804C8.12331 6.61804 7.51392 7.22743 7.51392 7.97915C7.51392 8.73087 8.12331 9.34026 8.87503 9.34026Z" stroke="#183B4E" stroke-miterlimit="10" stroke-linecap="round" stroke-linejoin="round"/>
<path d="M8.875 9.34027V11.3819" stroke="#183B4E" stroke-miterlimit="10" stroke-linecap="round" stroke-linejoin="round"/>
</svg>
