<svg width="40" height="40" viewBox="0 0 40 40" fill="none" xmlns="http://www.w3.org/2000/svg">
<path d="M12.5 20.5C12.5 21.1631 12.7634 21.7989 13.2322 22.2678C13.7011 22.7366 14.337 23 15 23C15.663 23 16.2989 22.7366 16.7678 22.2678C17.2366 21.7989 17.5 21.1631 17.5 20.5C17.5 19.837 17.2366 19.2011 16.7678 18.7322C16.2989 18.2634 15.663 18 15 18C14.337 18 13.7011 18.2634 13.2322 18.7322C12.7634 19.2011 12.5 19.837 12.5 20.5ZM17.615 17.2565C17.683 16.5735 18.245 16.063 18.9305 16.035C21.545 15.927 23.9605 16.084 25.9 16.3075C28.628 16.6215 30.5 19.01 30.5 21.756V22C30.5 22.2652 30.3946 22.5196 30.2071 22.7071C30.0196 22.8947 29.7652 23 29.5 23H18.602C18.1175 23 17.7055 22.653 17.65 22.1725C17.5511 21.3018 17.5011 20.4263 17.5 19.55C17.5 18.6525 17.555 17.8565 17.615 17.2565Z" stroke="#F4F4E1" stroke-linecap="round" stroke-linejoin="round"/>
<path d="M11.4895 13.5165C12.052 13.5575 12.3825 14.018 12.407 14.5815C12.4495 15.559 12.5 17.5515 12.5 21.5C12.5 22.0667 12.499 22.5943 12.497 23.083C13.6815 23.043 15.9065 23 20 23H29.491C30.045 23 30.4935 23.451 30.4895 24.005C30.4735 26.341 30.4365 27.674 30.4045 28.418C30.3795 28.9815 30.0495 29.4425 29.487 29.483C29.1611 29.506 28.8339 29.5062 28.508 29.4835C27.9455 29.4425 27.615 28.9815 27.5905 28.418C27.568 27.907 27.544 27.118 27.5255 25.9165C26.347 25.9565 24.1195 26 20 26C15.8775 26 13.65 25.9565 12.472 25.9165C12.4617 26.7508 12.4401 27.5848 12.407 28.4185C12.3825 28.982 12.052 29.4425 11.4895 29.4835C11.3485 29.4942 11.1853 29.4997 11 29.5C10.722 29.5005 10.652 29.4935 10.5105 29.4835C9.948 29.4425 9.6175 28.982 9.593 28.4185C9.5505 27.441 9.5 25.4485 9.5 21.5C9.5 17.5515 9.5505 15.559 9.593 14.5815C9.6175 14.018 9.948 13.5575 10.5105 13.5165C10.6515 13.5062 10.8147 13.5007 11 13.5C11.278 13.499 11.348 13.506 11.4895 13.5165Z" stroke="#F4F4E1" stroke-linecap="round" stroke-linejoin="round"/>
</svg>
