<svg width="25" height="20" viewBox="0 0 25 20" fill="none" xmlns="http://www.w3.org/2000/svg">
<path d="M21.5176 1.91602C21.8297 1.92988 22.1348 2.02352 22.4023 2.19043C22.67 2.35746 22.8906 2.59198 23.0391 2.87207L23.0986 2.99512L23.1484 3.12305C23.2523 3.42336 23.2732 3.74701 23.208 4.06055C23.1344 4.41437 22.9542 4.73383 22.6963 4.98145L22.6973 4.98242L9.75293 17.5723C9.4118 17.9039 8.95507 18.0858 8.48438 18.0859C8.01351 18.0859 7.55609 17.904 7.21484 17.5723L1.55176 12.0645L1.55273 12.0635C1.38467 11.903 1.24743 11.712 1.15234 11.498C1.05452 11.2779 1.00253 11.0395 1 10.7979C0.997503 10.5562 1.04446 10.3169 1.1377 10.0947L1.21582 9.93262C1.30174 9.77491 1.41148 9.63091 1.54004 9.50586C1.71123 9.33945 1.91343 9.20965 2.13379 9.12207L2.30273 9.06445C2.47305 9.0154 2.64968 8.99142 2.82715 8.99316L3.00391 9.00293C3.12139 9.0155 3.23757 9.03921 3.35059 9.07422L3.51758 9.13574L3.67773 9.21191C3.82816 9.29323 3.96636 9.39637 4.08887 9.51758H4.08984L8.4834 13.791L20.1592 2.43555V2.43652C20.488 2.11247 20.927 1.92828 21.3838 1.91504L21.5176 1.91602Z" fill="#DDA955" stroke="#DDA955" stroke-width="2"/>
</svg>
