<svg width="40" height="40" viewBox="0 0 40 40" fill="none" xmlns="http://www.w3.org/2000/svg">
<path fill-rule="evenodd" clip-rule="evenodd" d="M26.6667 18.6667C29.6133 18.6667 32 21.0533 32 24V32H8V26.6667C8 23.72 10.3867 21.3333 13.3333 21.3333H18.0533C18.9733 19.7333 20.6933 18.6667 22.6667 18.6667H26.6667ZM26.6667 21.3333H22.6667C21.2 21.3333 20 22.5333 20 24V29.3333H29.3333V24C29.3333 22.5333 28.1333 21.3333 26.6667 21.3333ZM17.3333 24H13.3333C11.8667 24 10.6667 25.2 10.6667 26.6667V29.3333H17.3333V24ZM14.6667 12C16.872 12 18.6667 13.7947 18.6667 16C18.6667 18.2053 16.872 20 14.6667 20C12.4613 20 10.6667 18.2053 10.6667 16C10.6667 13.7947 12.4613 12 14.6667 12ZM14.6667 14.5C13.84 14.5 13.1667 15.172 13.1667 16C13.1667 16.828 13.84 17.5 14.6667 17.5C15.4934 17.5 16.1667 16.828 16.1667 16C16.1667 15.172 15.4933 14.5 14.6667 14.5ZM24.6667 8C27.24 8 29.3333 10.0933 29.3333 12.6667C29.3333 15.2401 27.24 17.3333 24.6667 17.3333C22.0933 17.3333 20 15.24 20 12.6667C20 10.0933 22.0933 8 24.6667 8ZM24.6667 10.6667C23.564 10.6667 22.6667 11.564 22.6667 12.6667C22.6667 13.7693 23.564 14.6667 24.6667 14.6667C25.7693 14.6667 26.6667 13.7693 26.6667 12.6667C26.6667 11.564 25.7693 10.6667 24.6667 10.6667Z" fill="#F4F4E1"/>
</svg>
