<svg width="40" height="40" viewBox="0 0 40 40" fill="none" xmlns="http://www.w3.org/2000/svg">
<path fill-rule="evenodd" clip-rule="evenodd" d="M21.2519 30.3623H26.0089V20.8091H30.1438L20 9.75067L9.85623 20.8091H13.9911V30.3623H18.7481V26.541H21.2519V30.3623ZM27.5111 30.6353C27.5111 30.9972 27.3792 31.3443 27.1445 31.6003C26.9097 31.8562 26.5913 32 26.2593 32H13.7407C13.4087 32 13.0903 31.8562 12.8555 31.6003C12.6208 31.3443 12.4889 30.9972 12.4889 30.6353V22.4468H9.25159C9.00403 22.4468 8.76205 22.3667 8.55623 22.2167C8.35042 22.0668 8.19001 21.8537 8.09528 21.6043C8.00055 21.355 7.97576 21.0806 8.02404 20.8159C8.07232 20.5512 8.19151 20.3081 8.36653 20.1172L19.1149 8.39958C19.3497 8.14373 19.6681 8 20 8C20.3319 8 20.6503 8.14373 20.8851 8.39958L31.6335 20.1172C31.8085 20.3081 31.9277 20.5512 31.976 20.8159C32.0242 21.0806 31.9994 21.355 31.9047 21.6043C31.81 21.8537 31.6496 22.0668 31.4438 22.2167C31.2379 22.3667 30.996 22.4468 30.7484 22.4468H27.5111V30.6353Z" fill="#F4F4E1"/>
</svg>
